<svg xmlns="http://www.w3.org/2000/svg" width="289.75" height="35.059"><path fill="#5d9741" d="M25.083 0H289.75v35H25.083z"/><path fill="#c1d72f" d="M0 .029h122.833v35H0z"/><path d="M136.542 13.588h6.876v1.92h-4.38v1.32h3.972v1.92h-3.972v1.332h4.5V22h-7zm10.835 0h2.5v6.324h3.523V22h-6.024zm9.528 0h6.876v1.92H159.4v1.32h3.972v1.92H159.4v1.332h4.5V22h-7zm15.978 2.226a2.168 2.168 0 00-1.062-.306 1.871 1.871 0 00-1.02.288 2.014 2.014 0 00-.72.8 2.621 2.621 0 000 2.292 2.057 2.057 0 00.72.8 1.839 1.839 0 001.02.294 2.371 2.371 0 001.026-.264 3.351 3.351 0 00.978-.72l1.44 1.536a5.109 5.109 0 01-1.65 1.188 4.591 4.591 0 01-4.188-.126 4.125 4.125 0 01-1.59-1.578 4.461 4.461 0 01-.576-2.255 4.254 4.254 0 01.588-2.214 4.178 4.178 0 011.62-1.549 4.838 4.838 0 014.212-.156 4.631 4.631 0 011.584 1.092l-1.44 1.716a3.017 3.017 0 00-.942-.838zm5.142-2.226h7.392v1.992h-2.448V22h-2.508v-6.42h-2.436zM193.769 22l-1.116-2.269h-1.32V22h-2.5v-8.412h3.924a3.967 3.967 0 012.622.78 2.721 2.721 0 01.93 2.208 3.324 3.324 0 01-.366 1.6 2.716 2.716 0 01-1.05 1.074L196.6 22zm-2.436-4.188h1.428a1.192 1.192 0 00.87-.3 1.157 1.157 0 00.306-.864 1.12 1.12 0 00-.306-.846 1.207 1.207 0 00-.87-.294h-1.428zm8.844-4.224h2.5V22h-2.5zm11.694 2.226a2.168 2.168 0 00-1.062-.306 1.871 1.871 0 00-1.02.288 2.014 2.014 0 00-.72.8 2.621 2.621 0 000 2.292 2.057 2.057 0 00.72.8 1.839 1.839 0 001.02.294 2.371 2.371 0 001.026-.264 3.351 3.351 0 00.978-.72l1.44 1.536a5.109 5.109 0 01-1.65 1.188 4.591 4.591 0 01-4.188-.126 4.125 4.125 0 01-1.59-1.578 4.461 4.461 0 01-.576-2.255 4.254 4.254 0 01.588-2.214 4.178 4.178 0 011.62-1.549 4.838 4.838 0 014.212-.156 4.631 4.631 0 011.584 1.092l-1.44 1.716a3.017 3.017 0 00-.942-.838zm5.778-2.226h2.5V22h-2.5zm5.915 0h7.392v1.992h-2.448V22H226v-6.42h-2.436zm18.612 0l-3.024 5.748V22h-2.5v-2.616l-3.084-5.8h2.5l1.832 3.436 1.788-3.432zM15.35 18.836V22h-1.483v-8.531h3.264a3.3 3.3 0 012.271.745 2.5 2.5 0 01.841 1.971 2.42 2.42 0 01-.823 1.953 3.457 3.457 0 01-2.306.7zm0-1.2h1.781a1.754 1.754 0 001.207-.372 1.367 1.367 0 00.416-1.075 1.475 1.475 0 00-.422-1.1 1.626 1.626 0 00-1.16-.425H15.35zm15.636.321a5.234 5.234 0 01-.434 2.2 3.278 3.278 0 01-1.239 1.453 3.635 3.635 0 01-3.7 0 3.329 3.329 0 01-1.254-1.444A5.07 5.07 0 0123.908 18v-.48a5.189 5.189 0 01.442-2.2 3.325 3.325 0 011.25-1.462 3.643 3.643 0 013.7-.006 3.283 3.283 0 011.245 1.441 5.178 5.178 0 01.445 2.188zm-1.486-.445a3.729 3.729 0 00-.536-2.174 1.892 1.892 0 00-3.023 0 3.657 3.657 0 00-.554 2.13v.492a3.7 3.7 0 00.548 2.174 1.764 1.764 0 001.521.768 1.743 1.743 0 001.515-.75 3.781 3.781 0 00.53-2.191zm12.293 2.379l1.313-6.422h1.471L42.608 22H41.19l-1.623-6.229L37.909 22h-1.424l-1.969-8.531h1.471l1.324 6.41 1.629-6.41h1.242zm11.494-1.7h-3.5V20.8h4.1V22H48.3v-8.531h5.537v1.2h-4.054v2.351h3.5zm7.574.528h-1.653V22h-1.482v-8.531h3a3.489 3.489 0 012.279.663 2.344 2.344 0 01.8 1.917 2.4 2.4 0 01-.413 1.434 2.623 2.623 0 01-1.151.889l1.916 3.553V22h-1.585zm-1.652-1.2h1.523a1.694 1.694 0 001.172-.378 1.318 1.318 0 00.422-1.034 1.4 1.4 0 00-.39-1.061 1.655 1.655 0 00-1.163-.387h-1.565zm13.632.672h-3.5V20.8h4.1V22h-5.587v-8.531h5.537v1.2h-4.054v2.351h3.5zM77.279 22v-8.531H79.8a3.952 3.952 0 012.007.5 3.436 3.436 0 011.356 1.43 4.538 4.538 0 01.48 2.121v.428a4.519 4.519 0 01-.483 2.133 3.4 3.4 0 01-1.378 1.419 4.135 4.135 0 01-2.048.5zm1.482-7.336V20.8h.967a2.229 2.229 0 001.79-.729 3.165 3.165 0 00.636-2.09v-.475a3.251 3.251 0 00-.6-2.117 2.142 2.142 0 00-1.752-.731zM93.388 22v-8.531h2.924a3.57 3.57 0 012.2.58 2.043 2.043 0 01.756 1.729 1.842 1.842 0 01-.316 1.055 2.037 2.037 0 01-.926.727 1.883 1.883 0 011.069.706 2.056 2.056 0 01.378 1.245 2.271 2.271 0 01-.771 1.846A3.35 3.35 0 0196.5 22zm1.482-4.939h1.453a1.68 1.68 0 001.081-.313 1.074 1.074 0 00.39-.888 1.089 1.089 0 00-.36-.914 1.82 1.82 0 00-1.122-.281H94.87zm0 1.09V20.8h1.646a1.6 1.6 0 001.09-.344A1.206 1.206 0 0098 19.5a1.215 1.215 0 00-1.36-1.35zm11.189-.639l1.963-4.043h1.641l-2.863 5.39V22h-1.488v-3.141l-2.865-5.391h1.653z" fill="#fff"/><g fill="#fff"><path d="M260.738 19.574l.006-4.145 1.056.001-.006 4.145zm10.351-3.003a.83.83 0 00-.849.821v.013a.838.838 0 101.675-.01.825.825 0 00-.826-.824z"/><path d="M255.167 12v11h21.6V12zm10.8 9.13h-8.927v-7.258h8.925zm7.01-3.712a1.893 1.893 0 11-1.888-1.879 1.885 1.885 0 011.888 1.868z"/></g></svg>